<svg width="23" height="14" viewBox="0 0 23 14" fill="none" xmlns="http://www.w3.org/2000/svg">
<g clip-path="url(#clip0)">
<path d="M23.2768 2.85268C23.2768 2.67411 23.1875 2.47321 23.0536 2.33928L21.9375 1.22321C21.8036 1.08929 21.6027 1 21.4241 1C21.2455 1 21.0446 1.08929 20.9107 1.22321L12.1384 9.99553L3.36607 1.22321C3.23214 1.08929 3.03125 1 2.85268 1C2.65179 1 2.47321 1.08929 2.33929 1.22321L1.22321 2.33928C1.08929 2.47321 1 2.67411 1 2.85268C1 3.03125 1.08929 3.23214 1.22321 3.36607L11.625 13.7679C11.7589 13.9018 11.9598 13.9911 12.1384 13.9911C12.317 13.9911 12.5179 13.9018 12.6518 13.7679L23.0536 3.36607C23.1875 3.23214 23.2768 3.03125 23.2768 2.85268Z" fill="#113364"/>
</g>
<defs>
<clipPath id="clip0">
<rect width="23" height="14" fill="white"/>
</clipPath>
</defs>
</svg>
